<?xml version="1.0" encoding="utf-8"?>
<!-- Generator: Adobe Illustrator 21.1.0, SVG Export Plug-In . SVG Version: 6.00 Build 0)  -->
<!DOCTYPE svg PUBLIC "-//W3C//DTD SVG 1.1//EN" "http://www.w3.org/Graphics/SVG/1.1/DTD/svg11.dtd" [
	<!ENTITY ns_extend "http://ns.adobe.com/Extensibility/1.0/">
	<!ENTITY ns_ai "http://ns.adobe.com/AdobeIllustrator/10.0/">
	<!ENTITY ns_graphs "http://ns.adobe.com/Graphs/1.0/">
	<!ENTITY ns_vars "http://ns.adobe.com/Variables/1.0/">
	<!ENTITY ns_imrep "http://ns.adobe.com/ImageReplacement/1.0/">
	<!ENTITY ns_sfw "http://ns.adobe.com/SaveForWeb/1.0/">
	<!ENTITY ns_custom "http://ns.adobe.com/GenericCustomNamespace/1.0/">
	<!ENTITY ns_adobe_xpath "http://ns.adobe.com/XPath/1.0/">
]>
<svg version="1.1" id="Layer_2" xmlns:x="&ns_extend;" xmlns:i="&ns_ai;" xmlns:graph="&ns_graphs;"
	 xmlns="http://www.w3.org/2000/svg" xmlns:xlink="http://www.w3.org/1999/xlink" x="0px" y="0px" viewBox="0 0 172 172"
	 style="enable-background:new 0 0 172 172;" xml:space="preserve">
<style type="text/css">
	.st0{fill:none;stroke:#0DF9FF;stroke-width:4;stroke-miterlimit:10;}
	.st1{opacity:0.43;fill:url(#SVGID_1_);}
	.st2{fill:#0DF9FF;}
</style>
<switch>
	<g i:extraneous="self">
		<g>
			<path class="st0" d="M32.3,135h92.4l39.2-114.9c0,0,2.5-10.9-9.1-11.4s-19,16.2-19,16.2s-12.3,40.7-24.1,70.4
				c0,0-76.7-4.6-89.8-4.6S5.4,95.8,9.5,104.8S32.3,135,32.3,135z"/>
			<linearGradient id="SVGID_1_" gradientUnits="userSpaceOnUse" x1="19.4613" y1="198.7467" x2="133.8248" y2="-3.84">
				<stop  offset="0" style="stop-color:#00ADDC"/>
				<stop  offset="1" style="stop-color:#6BFBFF"/>
			</linearGradient>
			<path class="st1" d="M32.3,135h92.4l39.2-114.9c0,0,2.5-10.9-9.1-11.4s-19,16.2-19,16.2s-12.3,40.7-24.1,70.4
				c0,0-76.7-4.6-89.8-4.6S5.4,95.8,9.5,104.8S32.3,135,32.3,135z"/>
			<g>
				<g>
					<path class="st0" d="M42.4,163.3c0,0,35.8-24,12.9-58.3C37.8,78.7,29.8,63.2,30.9,48.3"/>
					<g>
						<polygon class="st2" points="40.4,53.4 34.4,34.4 21,49.1 						"/>
					</g>
				</g>
			</g>
			<g>
				<g>
					<path class="st0" d="M66.1,163.3c0,0,35.8-24,12.9-58.3C61.4,78.7,53.5,63.2,54.6,48.3"/>
					<g>
						<polygon class="st2" points="64.1,53.4 58.1,34.4 44.6,49.1 						"/>
					</g>
				</g>
			</g>
			<g>
				<g>
					<path class="st0" d="M90.4,163.3c0,0,35.8-24,12.9-58.3C85.7,78.7,77.8,63.2,78.8,48.3"/>
					<g>
						<polygon class="st2" points="88.3,53.4 82.4,34.4 68.9,49.1 						"/>
					</g>
				</g>
			</g>
		</g>
	</g>
</switch>
</svg>
