<?xml version="1.0" encoding="utf-8"?>
<!-- Generator: Adobe Illustrator 21.1.0, SVG Export Plug-In . SVG Version: 6.00 Build 0)  -->
<!DOCTYPE svg PUBLIC "-//W3C//DTD SVG 1.1//EN" "http://www.w3.org/Graphics/SVG/1.1/DTD/svg11.dtd" [
	<!ENTITY ns_extend "http://ns.adobe.com/Extensibility/1.0/">
	<!ENTITY ns_ai "http://ns.adobe.com/AdobeIllustrator/10.0/">
	<!ENTITY ns_graphs "http://ns.adobe.com/Graphs/1.0/">
	<!ENTITY ns_vars "http://ns.adobe.com/Variables/1.0/">
	<!ENTITY ns_imrep "http://ns.adobe.com/ImageReplacement/1.0/">
	<!ENTITY ns_sfw "http://ns.adobe.com/SaveForWeb/1.0/">
	<!ENTITY ns_custom "http://ns.adobe.com/GenericCustomNamespace/1.0/">
	<!ENTITY ns_adobe_xpath "http://ns.adobe.com/XPath/1.0/">
]>
<svg version="1.1" id="Layer_2" xmlns:x="&ns_extend;" xmlns:i="&ns_ai;" xmlns:graph="&ns_graphs;"
	 xmlns="http://www.w3.org/2000/svg" xmlns:xlink="http://www.w3.org/1999/xlink" x="0px" y="0px" viewBox="0 0 172 172"
	 style="enable-background:new 0 0 172 172;" xml:space="preserve">
<style type="text/css">
	.st0{opacity:0.43;fill:url(#SVGID_1_);}
	.st1{fill:none;stroke:#0DF9FF;stroke-width:4;stroke-miterlimit:10;}
	.st2{fill:#0DF9FF;}
</style>
<switch>
	<g i:extraneous="self">
		<g>
			
				<linearGradient id="SVGID_1_" gradientUnits="userSpaceOnUse" x1="-670.8471" y1="198.7467" x2="-556.4836" y2="-3.84" gradientTransform="matrix(-1 0 0 1 -518.3083 0)">
				<stop  offset="0" style="stop-color:#00ADDC"/>
				<stop  offset="1" style="stop-color:#6BFBFF"/>
			</linearGradient>
			<path class="st0" d="M139.7,135H47.3L8.1,20.1c0,0-2.5-10.9,9.1-11.4c11.6-0.5,19,16.2,19,16.2s12.3,40.7,24.1,70.4
				c0,0,76.7-4.6,89.8-4.6c13.1,0,16.6,5.1,12.5,14.1S139.7,135,139.7,135z"/>
			<g>
				<g>
					<path class="st1" d="M129.6,163.3c0,0-35.8-24-12.9-58.3c17.5-26.3,25.5-41.8,24.4-56.7"/>
					<g>
						<polygon class="st2" points="151,49.1 137.6,34.4 131.6,53.4 						"/>
					</g>
				</g>
			</g>
			<g>
				<g>
					<path class="st1" d="M105.9,163.3c0,0-35.8-24-12.9-58.3c17.5-26.3,25.5-41.8,24.4-56.7"/>
					<g>
						<polygon class="st2" points="127.4,49.1 113.9,34.4 107.9,53.4 						"/>
					</g>
				</g>
			</g>
			<g>
				<g>
					<path class="st1" d="M81.6,163.3c0,0-35.8-24-12.9-58.3c17.5-26.3,25.5-41.8,24.4-56.7"/>
					<g>
						<polygon class="st2" points="103.1,49.1 89.6,34.4 83.7,53.4 						"/>
					</g>
				</g>
			</g>
			<path class="st1" d="M139.7,135H47.3L8.1,20.1c0,0-2.5-10.9,9.1-11.4c11.6-0.5,19,16.2,19,16.2s12.3,40.7,24.1,70.4
				c0,0,76.7-4.6,89.8-4.6c13.1,0,16.6,5.1,12.5,14.1S139.7,135,139.7,135z"/>
		</g>
	</g>
</switch>
</svg>
