<?xml version="1.0" encoding="utf-8"?>
<!-- Generator: Adobe Illustrator 21.1.0, SVG Export Plug-In . SVG Version: 6.00 Build 0)  -->
<!DOCTYPE svg PUBLIC "-//W3C//DTD SVG 1.1//EN" "http://www.w3.org/Graphics/SVG/1.1/DTD/svg11.dtd" [
	<!ENTITY ns_extend "http://ns.adobe.com/Extensibility/1.0/">
	<!ENTITY ns_ai "http://ns.adobe.com/AdobeIllustrator/10.0/">
	<!ENTITY ns_graphs "http://ns.adobe.com/Graphs/1.0/">
	<!ENTITY ns_vars "http://ns.adobe.com/Variables/1.0/">
	<!ENTITY ns_imrep "http://ns.adobe.com/ImageReplacement/1.0/">
	<!ENTITY ns_sfw "http://ns.adobe.com/SaveForWeb/1.0/">
	<!ENTITY ns_custom "http://ns.adobe.com/GenericCustomNamespace/1.0/">
	<!ENTITY ns_adobe_xpath "http://ns.adobe.com/XPath/1.0/">
]>
<svg version="1.1" id="Layer_2" xmlns:x="&ns_extend;" xmlns:i="&ns_ai;" xmlns:graph="&ns_graphs;"
	 xmlns="http://www.w3.org/2000/svg" xmlns:xlink="http://www.w3.org/1999/xlink" x="0px" y="0px" viewBox="0 0 140 140"
	 style="enable-background:new 0 0 140 140;" xml:space="preserve">
<style type="text/css">
	.st0{fill:url(#SVGID_1_);}
	.st1{fill:url(#SVGID_2_);}
	.st2{fill:url(#SVGID_3_);}
	.st3{fill:url(#SVGID_4_);}
</style>
<switch>
	<g i:extraneous="self">
		<g>
			<g>
				<linearGradient id="SVGID_1_" gradientUnits="userSpaceOnUse" x1="-12.9122" y1="161.8499" x2="136.9379" y2="-4.2002">
					<stop  offset="0" style="stop-color:#00ADDC"/>
					<stop  offset="1" style="stop-color:#6BFBFF"/>
				</linearGradient>
				<path class="st0" d="M70,138.5c-0.1,0-0.3,0-0.4,0c-18.3-0.1-35.5-7.3-48.3-20.3C8.4,105.2,1.4,87.9,1.5,69.6
					c0.1-18.3,7.3-35.5,20.3-48.3C34.7,8.5,51.8,1.5,70,1.5c0.1,0,0.3,0,0.4,0c18.3,0.1,35.5,7.3,48.3,20.3
					c12.9,13,19.9,30.2,19.8,48.5l0,0C138.3,108,107.6,138.5,70,138.5z M70,3.9c-17.5,0-34,6.8-46.5,19.1C11,35.4,4,52,3.9,69.6
					c-0.1,17.7,6.7,34.3,19.1,46.8s29,19.5,46.6,19.6c0.1,0,0.2,0,0.4,0c36.3,0,65.9-29.4,66.1-65.7c0.1-17.7-6.7-34.3-19.1-46.8
					C104.6,11,88,4,70.4,3.9C70.2,3.9,70.1,3.9,70,3.9z"/>
			</g>
			<g>
				<g>
					<linearGradient id="SVGID_2_" gradientUnits="userSpaceOnUse" x1="-2.2981" y1="171.5389" x2="147.6513" y2="5.3788">
						<stop  offset="0" style="stop-color:#00ADDC"/>
						<stop  offset="1" style="stop-color:#6BFBFF"/>
					</linearGradient>
					<path class="st1" d="M96.9,65.2c-3.4-1.7-7.5-0.3-9.2,3.1l-10,19.9L57.5,83c-2-0.5-4,0.2-5.2,1.9l-15.4,20.9
						c-1.6,2.2-1.2,5.3,1.1,6.9c0.9,0.7,1.9,1,2.9,1c1.5,0,3-0.7,4-2l13.4-18.2l21.3,5.5c0.1,0.1,0.2,0.1,0.4,0.2
						c1,0.5,2,0.7,3.1,0.7c2.5,0,5-1.4,6.2-3.8L100,74.4C101.7,71,100.3,66.9,96.9,65.2z"/>
				</g>
			</g>
			<g>
				<g>
					<linearGradient id="SVGID_3_" gradientUnits="userSpaceOnUse" x1="-6.0031" y1="168.1953" x2="143.9462" y2="2.0352">
						<stop  offset="0" style="stop-color:#00ADDC"/>
						<stop  offset="1" style="stop-color:#6BFBFF"/>
					</linearGradient>
					<circle class="st2" cx="97.2" cy="53.8" r="8.3"/>
				</g>
			</g>
			<g>
				<linearGradient id="SVGID_4_" gradientUnits="userSpaceOnUse" x1="-32.1525" y1="144.5971" x2="117.7968" y2="-21.563">
					<stop  offset="0" style="stop-color:#00ADDC"/>
					<stop  offset="1" style="stop-color:#6BFBFF"/>
				</linearGradient>
				<path class="st3" d="M55.9,68.3c-0.4,0-0.7-0.1-1-0.4l-0.4-0.4v-8.7H34.1c-0.9,0-1.6-0.7-1.6-1.6v-8c0-0.9,0.7-1.6,1.6-1.6h21.6
					v0.7h1.2v1.7h-22v6.5h22v8.3l12-11.3L56.3,41.4h-1.8v-2.1l0.4-0.4c0.6-0.5,1.6-0.7,2.2-0.1l14.2,13.4c0.3,0.3,0.5,0.7,0.5,1.1
					s-0.2,0.8-0.5,1.1L57.1,67.8C56.8,68.1,56.3,68.3,55.9,68.3z M55.5,66.1C55.5,66.1,55.5,66.1,55.5,66.1L55.5,66.1z M55.5,40.6
					C55.5,40.6,55.5,40.6,55.5,40.6L55.5,40.6z"/>
			</g>
		</g>
	</g>
</switch>
</svg>
