<?xml version="1.0" encoding="UTF-8" standalone="no"?>
<!-- Generator: Adobe Illustrator 21.0.0, SVG Export Plug-In . SVG Version: 6.00 Build 0)  -->

<svg
   xmlns:i="&amp;ns_ai;"
   xmlns:dc="http://purl.org/dc/elements/1.1/"
   xmlns:cc="http://creativecommons.org/ns#"
   xmlns:rdf="http://www.w3.org/1999/02/22-rdf-syntax-ns#"
   xmlns:svg="http://www.w3.org/2000/svg"
   xmlns="http://www.w3.org/2000/svg"
   xmlns:sodipodi="http://sodipodi.sourceforge.net/DTD/sodipodi-0.dtd"
   xmlns:inkscape="http://www.inkscape.org/namespaces/inkscape"
   version="1.1"
   id="Layer_2"
   x="0px"
   y="0px"
   viewBox="0 0 140 140"
   style="enable-background:new 0 0 140 140;"
   xml:space="preserve"
   inkscape:version="0.91 r13725"
   sodipodi:docname="HMI_HVAC_Front_Inactive.svg"><metadata
     id="metadata31"><rdf:RDF><cc:Work
         rdf:about=""><dc:format>image/svg+xml</dc:format><dc:type
           rdf:resource="http://purl.org/dc/dcmitype/StillImage" /></cc:Work></rdf:RDF></metadata><defs
     id="defs29" /><sodipodi:namedview
     pagecolor="#ffffff"
     bordercolor="#666666"
     borderopacity="1"
     objecttolerance="10"
     gridtolerance="10"
     guidetolerance="10"
     inkscape:pageopacity="0"
     inkscape:pageshadow="2"
     inkscape:window-width="2560"
     inkscape:window-height="1464"
     id="namedview27"
     showgrid="false"
     inkscape:zoom="1.6857143"
     inkscape:cx="-161.94915"
     inkscape:cy="70"
     inkscape:window-x="0"
     inkscape:window-y="0"
     inkscape:window-maximized="1"
     inkscape:current-layer="Layer_2" /><style
     type="text/css"
     id="style3">
	.st0{fill:#848286;}
	.st1{font-family:'Roboto-Regular';}
	.st2{font-size:19.2px;}
	.st3{letter-spacing:3;}
</style><switch
     id="switch5"><g
       i:extraneous="self"
       id="g7"><g
         id="g9"><g
           id="g11"><text
             transform="matrix(1 0 0 1 30.8062 42.6951)"
             class="st0 st1 st2 st3"
             id="text13">FRONT</text>
</g><g
           id="g15"><path
             class="st0"
             d="M70,138.5c-0.1,0-0.3,0-0.4,0c-37.8-0.2-68.3-31.1-68.1-68.9C1.7,32,32.4,1.5,70,1.5c0.1,0,0.3,0,0.4,0      c18.3,0.1,35.5,7.3,48.3,20.3s19.9,30.2,19.8,48.5c-0.1,18.3-7.3,35.5-20.3,48.3C105.3,131.5,88.2,138.5,70,138.5z M70,3.9      c-17.5,0-34,6.8-46.5,19.1C11,35.4,4,52,3.9,69.6c-0.2,36.4,29.3,66.3,65.7,66.5c0.1,0,0.2,0,0.4,0c17.5,0,34-6.8,46.5-19.1      c12.6-12.4,19.5-29,19.6-46.6l0,0c0.1-17.7-6.7-34.3-19.1-46.8S88,4,70.4,3.9C70.2,3.9,70.1,3.9,70,3.9z"
             id="path17" /></g><g
           id="g19"><path
             class="st0"
             d="M50.3,107.7L17.4,73.8l0.8-0.8C32,59,50.4,51.4,70,51.3c0,0,0.1,0,0.1,0c19.5,0,37.9,7.6,51.7,21.5l0.8,0.8      L97,100.2l-1.7-1.7l24-24.8c-13.2-12.9-30.6-20-49.1-20c0,0-0.1,0-0.1,0c-18.5,0-36,7.2-49.2,20.1l29.6,30.5      c5.4-4.9,12.4-7.5,19.7-7.5c0,0,0,0,0,0c7.7,0,15,2.9,20.5,8.3l-1.7,1.7c-5.1-4.9-11.8-7.6-18.9-7.6c0,0,0,0,0,0      c-7.1,0-13.8,2.7-18.9,7.7L50.3,107.7z"
             id="path21" /></g><g
           id="g23"><path
             class="st0"
             d="M70.7,89.5c-2,0-3.4-1.4-3.5-1.6l-6.8-5.5c-0.9-1.3-2.2-1.9-3.4-1.8c-1.4,0.1-2.7,1.1-3.6,2.7      c-1.5,2.6-3.5,4.2-5.8,4.3c-2.1,0.1-4.1-1.1-5.6-3.3l-1.2-1.7c-0.9-1.3-2.1-2-3.4-2c-1.4,0.1-2.7,1-3.6,2.6l-0.6,1l-2-3.9      l0.2-0.3c1.5-2.6,3.6-4.1,5.9-4.2c2.1-0.1,4.1,1.1,5.7,3.3l1.2,1.7c0.9,1.3,2.1,2.1,3.3,2c1.3-0.1,2.6-1,3.5-2.6      c1.5-2.6,3.6-4.2,5.9-4.4c2.1-0.2,4.1,0.9,5.6,2.9l6.5,5.2c0.2,0.2,0.8,0.7,1.6,0.7c0,0,0,0,0,0c0.6,0,1.3-0.4,1.9-1l4.2-3.7      c1.5-2.6,3.6-4,5.8-4.1c2.2-0.1,4.1,1.1,5.7,3.3l1.2,1.7c0.9,1.3,2.1,2,3.3,2c1.3-0.1,2.6-1,3.5-2.6c1.5-2.6,3.6-4.2,5.9-4.4      c2.1-0.1,4.1,0.9,5.6,3l0.2,0.3l-1.7,4.2l-0.6-0.9c-0.9-1.3-2.1-1.9-3.4-1.8c-1.4,0.1-2.7,1.1-3.6,2.7c-1.5,2.6-3.5,4.2-5.8,4.3      c-2.1,0.1-4.1-1.1-5.7-3.3l-1.2-1.7c-0.9-1.3-2.1-2-3.4-2c-1.4,0.1-2.7,1-3.6,2.6L79,83.4l-5.1,4.7l0,0      C72.9,89,71.8,89.5,70.7,89.5z M61.3,81.7L68,87c0.1,0.1,1.2,1.3,2.7,1.3c1,0,2-0.5,3-1.6l0.6-0.6l0.1,0.1l3.9-3.6      c1.1-1.9,2.8-3.1,4.5-3.1c1.6-0.1,3.2,0.8,4.4,2.5l1.2,1.7c1.3,1.9,2.9,2.8,4.6,2.8c1.8-0.1,3.5-1.4,4.8-3.7      c1.1-2,2.8-3.2,4.6-3.3c1.4-0.1,2.7,0.4,3.7,1.5l0.7-1.7c-1.3-1.6-2.8-2.4-4.4-2.3c-1.9,0.1-3.7,1.5-4.9,3.8      c-1.1,2-2.7,3.2-4.5,3.2c-1.7,0.1-3.2-0.8-4.4-2.5l-1.2-1.7C86,77.9,84.4,77,82.7,77c-1.9,0.1-3.6,1.4-4.9,3.6l-0.1,0.2      l-4.3,3.7c-0.8,0.9-1.7,1.3-2.7,1.3c-1.3,0.1-2.2-0.8-2.5-1l-6.7-5.3c-1.3-1.7-2.9-2.6-4.6-2.5c-1.9,0.1-3.7,1.5-4.9,3.8      c-1.1,2-2.7,3.2-4.5,3.2c-1.7,0-3.2-0.8-4.4-2.5L42,79.8c-1.3-1.9-2.9-2.8-4.6-2.8c-1.8,0.1-3.4,1.2-4.7,3.3l0.7,1.4      c1.1-1.4,2.5-2.3,4-2.3c1.7,0,3.2,0.8,4.4,2.5l1.2,1.7c1.3,1.9,2.9,2.8,4.6,2.8c1.8-0.1,3.5-1.4,4.8-3.7c1.1-2,2.8-3.2,4.6-3.3      C58.6,79.3,60.2,80.1,61.3,81.7z"
             id="path25" /></g></g></g></switch></svg>