<?xml version="1.0" encoding="UTF-8" standalone="no"?>
<!-- Generator: Adobe Illustrator 21.0.0, SVG Export Plug-In . SVG Version: 6.00 Build 0)  -->

<svg
   xmlns:i="&amp;ns_ai;"
   xmlns:dc="http://purl.org/dc/elements/1.1/"
   xmlns:cc="http://creativecommons.org/ns#"
   xmlns:rdf="http://www.w3.org/1999/02/22-rdf-syntax-ns#"
   xmlns:svg="http://www.w3.org/2000/svg"
   xmlns="http://www.w3.org/2000/svg"
   xmlns:sodipodi="http://sodipodi.sourceforge.net/DTD/sodipodi-0.dtd"
   xmlns:inkscape="http://www.inkscape.org/namespaces/inkscape"
   version="1.1"
   id="Layer_2"
   x="0px"
   y="0px"
   viewBox="0 0 140 140"
   style="enable-background:new 0 0 140 140;"
   xml:space="preserve"
   inkscape:version="0.91 r13725"
   sodipodi:docname="HMI_HVAC_AirRight_Inactive.svg"><metadata
     id="metadata35"><rdf:RDF><cc:Work
         rdf:about=""><dc:format>image/svg+xml</dc:format><dc:type
           rdf:resource="http://purl.org/dc/dcmitype/StillImage" /></cc:Work></rdf:RDF></metadata><defs
     id="defs33" /><sodipodi:namedview
     pagecolor="#ffffff"
     bordercolor="#666666"
     borderopacity="1"
     objecttolerance="10"
     gridtolerance="10"
     guidetolerance="10"
     inkscape:pageopacity="0"
     inkscape:pageshadow="2"
     inkscape:window-width="2560"
     inkscape:window-height="1464"
     id="namedview31"
     showgrid="false"
     inkscape:zoom="1.6857143"
     inkscape:cx="-212.9661"
     inkscape:cy="70"
     inkscape:window-x="0"
     inkscape:window-y="0"
     inkscape:window-maximized="1"
     inkscape:current-layer="Layer_2" /><style
     type="text/css"
     id="style3">
	.st0{fill:#848286;}
</style><switch
     id="switch5"><g
       i:extraneous="self"
       id="g7"><g
         id="g9"><g
           id="g11"><path
             class="st0"
             d="M70,138.5c-0.1,0-0.3,0-0.4,0c-18.3-0.1-35.5-7.3-48.3-20.3C8.4,105.2,1.4,87.9,1.5,69.6      c0.1-18.3,7.3-35.5,20.3-48.3C34.7,8.5,51.8,1.5,70,1.5c0.1,0,0.3,0,0.4,0c18.3,0.1,35.5,7.3,48.3,20.3      c12.9,13,19.9,30.2,19.8,48.5l0,0C138.3,108,107.6,138.5,70,138.5z M70,3.9c-17.5,0-34,6.8-46.5,19.1C11,35.4,4,52,3.9,69.6      c-0.1,17.7,6.7,34.3,19.1,46.8s29,19.5,46.6,19.6c0.1,0,0.2,0,0.4,0c36.3,0,65.9-29.4,66.1-65.7c0.1-17.7-6.7-34.3-19.1-46.8      C104.6,11,88,4,70.4,3.9C70.2,3.9,70.1,3.9,70,3.9z"
             id="path13" /></g><g
           id="g15"><g
             id="g17"><path
               class="st0"
               d="M96.9,65.2c-3.4-1.7-7.5-0.3-9.2,3.1l-10,19.9L57.5,83c-2-0.5-4,0.2-5.2,1.9l-15.4,20.9       c-1.6,2.2-1.2,5.3,1.1,6.9c0.9,0.7,1.9,1,2.9,1c1.5,0,3-0.7,4-2l13.4-18.2l21.3,5.5c0.1,0.1,0.2,0.1,0.4,0.2       c1,0.5,2,0.7,3.1,0.7c2.5,0,5-1.4,6.2-3.8L100,74.4C101.7,71,100.3,66.9,96.9,65.2z"
               id="path19" /></g></g><g
           id="g21"><g
             id="g23"><circle
               class="st0"
               cx="97.2"
               cy="53.8"
               r="8.3"
               id="circle25" /></g></g><g
           id="g27"><path
             class="st0"
             d="M55.9,68.3c-0.4,0-0.7-0.1-1-0.4l-0.4-0.4v-8.7H34.1c-0.9,0-1.6-0.7-1.6-1.6v-8c0-0.9,0.7-1.6,1.6-1.6h21.6      v0.7h1.2v1.7h-22v6.5h22v8.3l12-11.3L56.3,41.4h-1.8v-2.1l0.4-0.4c0.6-0.5,1.6-0.7,2.2-0.1l14.2,13.4c0.3,0.3,0.5,0.7,0.5,1.1      s-0.2,0.8-0.5,1.1L57.1,67.8C56.8,68.1,56.3,68.3,55.9,68.3z M55.5,66.1C55.5,66.1,55.5,66.1,55.5,66.1L55.5,66.1z M55.5,40.6      C55.5,40.6,55.5,40.6,55.5,40.6L55.5,40.6z"
             id="path29" /></g></g></g></switch></svg>