<?xml version="1.0" encoding="UTF-8" standalone="no"?>
<!-- Generator: Adobe Illustrator 21.0.0, SVG Export Plug-In . SVG Version: 6.00 Build 0)  -->

<svg
   xmlns:i="&amp;ns_ai;"
   xmlns:dc="http://purl.org/dc/elements/1.1/"
   xmlns:cc="http://creativecommons.org/ns#"
   xmlns:rdf="http://www.w3.org/1999/02/22-rdf-syntax-ns#"
   xmlns:svg="http://www.w3.org/2000/svg"
   xmlns="http://www.w3.org/2000/svg"
   xmlns:sodipodi="http://sodipodi.sourceforge.net/DTD/sodipodi-0.dtd"
   xmlns:inkscape="http://www.inkscape.org/namespaces/inkscape"
   version="1.1"
   id="Layer_2"
   x="0px"
   y="0px"
   viewBox="0 0 140 140"
   style="enable-background:new 0 0 140 140;"
   xml:space="preserve"
   inkscape:version="0.91 r13725"
   sodipodi:docname="HMI_HVAC_AirUp_Inactive.svg"><metadata
     id="metadata41"><rdf:RDF><cc:Work
         rdf:about=""><dc:format>image/svg+xml</dc:format><dc:type
           rdf:resource="http://purl.org/dc/dcmitype/StillImage" /></cc:Work></rdf:RDF></metadata><defs
     id="defs39" /><sodipodi:namedview
     pagecolor="#ffffff"
     bordercolor="#666666"
     borderopacity="1"
     objecttolerance="10"
     gridtolerance="10"
     guidetolerance="10"
     inkscape:pageopacity="0"
     inkscape:pageshadow="2"
     inkscape:window-width="2560"
     inkscape:window-height="1464"
     id="namedview37"
     showgrid="false"
     inkscape:zoom="1.6857143"
     inkscape:cx="-186.5678"
     inkscape:cy="70"
     inkscape:window-x="0"
     inkscape:window-y="0"
     inkscape:window-maximized="1"
     inkscape:current-layer="Layer_2" /><style
     type="text/css"
     id="style3">
	.st0{fill:#848286;}
</style><switch
     id="switch5"><g
       i:extraneous="self"
       id="g7"><g
         id="g9"><g
           id="g11"><g
             id="g13"><path
               class="st0"
               d="M70,138.5c-0.1,0-0.3,0-0.4,0c-37.8-0.2-68.3-31.1-68.1-68.9C1.7,32,32.4,1.5,70,1.5c0.1,0,0.3,0,0.4,0       c37.8,0.2,68.3,31.1,68.1,68.9l0,0C138.3,108,107.6,138.5,70,138.5z M70,3.9C33.7,3.9,4.1,33.3,3.9,69.6       c-0.2,36.4,29.3,66.3,65.7,66.5c0.1,0,0.2,0,0.4,0c36.3,0,65.9-29.4,66.1-65.7c0.2-36.4-29.3-66.3-65.7-66.5       C70.2,3.9,70.1,3.9,70,3.9z"
               id="path15" /></g></g><g
           id="g17"><g
             id="g19"><g
               id="g21"><path
                 class="st0"
                 d="M96.9,65.2c-3.4-1.7-7.5-0.3-9.2,3.1l-10,19.9L57.5,83c-2-0.5-4,0.2-5.2,1.9l-15.4,20.9        c-1.6,2.2-1.2,5.3,1.1,6.9c0.9,0.7,1.9,1,2.9,1c1.5,0,3-0.7,4-2l13.4-18.2l21.3,5.5c0.1,0.1,0.2,0.1,0.4,0.2        c1,0.5,2,0.7,3.1,0.7c2.5,0,5-1.4,6.2-3.8L100,74.4C101.7,71,100.3,66.9,96.9,65.2z"
                 id="path23" /></g></g><g
             id="g25"><g
               id="g27"><circle
                 class="st0"
                 cx="97.2"
                 cy="53.8"
                 r="8.3"
                 id="circle29" /></g></g></g><g
           id="g31"><g
             id="g33"><path
               class="st0"
               d="M55.9,73h-8c-0.9,0-1.6-0.7-1.6-1.6V49.8h0.7v-1.2h1.7v22h6.5v-22h8.3l-11.3-12L40.2,49.2V51h-2.1       l-0.4-0.4c-0.5-0.6-0.7-1.6-0.1-2.2L51,34.2c0.3-0.3,0.7-0.5,1.1-0.5c0,0,0,0,0,0c0.4,0,0.8,0.2,1.1,0.5l13.4,14.2       c0.5,0.6,0.7,1.6,0.1,2.2L66.3,51h-8.7v20.4C57.5,72.3,56.8,73,55.9,73z M64.8,50.1C64.8,50.1,64.8,50.1,64.8,50.1L64.8,50.1z        M39.4,50L39.4,50C39.4,50.1,39.4,50.1,39.4,50z"
               id="path35" /></g></g></g></g></switch></svg>