<?xml version="1.0" encoding="UTF-8" standalone="no"?>
<!-- Generator: Adobe Illustrator 21.0.0, SVG Export Plug-In . SVG Version: 6.00 Build 0)  -->

<svg
   xmlns:i="&amp;ns_ai;"
   xmlns:dc="http://purl.org/dc/elements/1.1/"
   xmlns:cc="http://creativecommons.org/ns#"
   xmlns:rdf="http://www.w3.org/1999/02/22-rdf-syntax-ns#"
   xmlns:svg="http://www.w3.org/2000/svg"
   xmlns="http://www.w3.org/2000/svg"
   xmlns:sodipodi="http://sodipodi.sourceforge.net/DTD/sodipodi-0.dtd"
   xmlns:inkscape="http://www.inkscape.org/namespaces/inkscape"
   version="1.1"
   id="Layer_2"
   x="0px"
   y="0px"
   viewBox="0 0 172 172"
   style="enable-background:new 0 0 172 172;"
   xml:space="preserve"
   inkscape:version="0.91 r13725"
   sodipodi:docname="HMI_HVAC_Right_Chair_OFF.svg"><metadata
     id="metadata49"><rdf:RDF><cc:Work
         rdf:about=""><dc:format>image/svg+xml</dc:format><dc:type
           rdf:resource="http://purl.org/dc/dcmitype/StillImage" /></cc:Work></rdf:RDF></metadata><defs
     id="defs47" /><sodipodi:namedview
     pagecolor="#ffffff"
     bordercolor="#666666"
     borderopacity="1"
     objecttolerance="10"
     gridtolerance="10"
     guidetolerance="10"
     inkscape:pageopacity="0"
     inkscape:pageshadow="2"
     inkscape:window-width="2560"
     inkscape:window-height="1464"
     id="namedview45"
     showgrid="false"
     inkscape:zoom="1.372093"
     inkscape:cx="-273.66949"
     inkscape:cy="86"
     inkscape:window-x="0"
     inkscape:window-y="0"
     inkscape:window-maximized="1"
     inkscape:current-layer="Layer_2" /><style
     type="text/css"
     id="style3">
	.st0{fill:none;stroke:#69676C;stroke-width:4;stroke-miterlimit:10;}
	.st1{opacity:0.43;fill:#69676C;}
	.st2{fill:#69676C;}
</style><switch
     id="switch5"><g
       i:extraneous="self"
       id="g7"><g
         id="g9"><path
           class="st0"
           d="M139.7,135H47.3L8.1,20.1c0,0-2.5-10.9,9.1-11.4c11.6-0.5,19,16.2,19,16.2s12.3,40.7,24.1,70.4     c0,0,76.7-4.6,89.8-4.6c13.1,0,16.6,5.1,12.5,14.1S139.7,135,139.7,135z"
           id="path11" /><path
           class="st1"
           d="M139.7,135H47.3L8.1,20.1c0,0-2.5-10.9,9.1-11.4c11.6-0.5,19,16.2,19,16.2s12.3,40.7,24.1,70.4     c0,0,76.7-4.6,89.8-4.6c13.1,0,16.6,5.1,12.5,14.1S139.7,135,139.7,135z"
           id="path13" /><g
           id="g15"><g
             id="g17"><path
               class="st0"
               d="M129.6,163.3c0,0-35.8-24-12.9-58.3c17.5-26.3,25.5-41.8,24.4-56.7"
               id="path19" /><g
               id="g21"><polygon
                 class="st2"
                 points="151,49.1 137.6,34.4 131.6,53.4       "
                 id="polygon23" /></g></g></g><g
           id="g25"><g
             id="g27"><path
               class="st0"
               d="M105.9,163.3c0,0-35.8-24-12.9-58.3c17.5-26.3,25.5-41.8,24.4-56.7"
               id="path29" /><g
               id="g31"><polygon
                 class="st2"
                 points="127.4,49.1 113.9,34.4 107.9,53.4       "
                 id="polygon33" /></g></g></g><g
           id="g35"><g
             id="g37"><path
               class="st0"
               d="M81.6,163.3c0,0-35.8-24-12.9-58.3c17.5-26.3,25.5-41.8,24.4-56.7"
               id="path39" /><g
               id="g41"><polygon
                 class="st2"
                 points="103.1,49.1 89.6,34.4 83.7,53.4       "
                 id="polygon43" /></g></g></g></g></g></switch></svg>