<?xml version="1.0" encoding="utf-8"?>
<!-- Generator: Adobe Illustrator 21.1.0, SVG Export Plug-In . SVG Version: 6.00 Build 0)  -->
<!DOCTYPE svg PUBLIC "-//W3C//DTD SVG 1.1//EN" "http://www.w3.org/Graphics/SVG/1.1/DTD/svg11.dtd" [
	<!ENTITY ns_extend "http://ns.adobe.com/Extensibility/1.0/">
	<!ENTITY ns_ai "http://ns.adobe.com/AdobeIllustrator/10.0/">
	<!ENTITY ns_graphs "http://ns.adobe.com/Graphs/1.0/">
	<!ENTITY ns_vars "http://ns.adobe.com/Variables/1.0/">
	<!ENTITY ns_imrep "http://ns.adobe.com/ImageReplacement/1.0/">
	<!ENTITY ns_sfw "http://ns.adobe.com/SaveForWeb/1.0/">
	<!ENTITY ns_custom "http://ns.adobe.com/GenericCustomNamespace/1.0/">
	<!ENTITY ns_adobe_xpath "http://ns.adobe.com/XPath/1.0/">
]>
<svg version="1.1" id="Layer_2" xmlns:x="&ns_extend;" xmlns:i="&ns_ai;" xmlns:graph="&ns_graphs;"
	 xmlns="http://www.w3.org/2000/svg" xmlns:xlink="http://www.w3.org/1999/xlink" x="0px" y="0px" viewBox="0 0 140 140"
	 style="enable-background:new 0 0 140 140;" xml:space="preserve">
<style type="text/css">
	.st0{fill:#0DF9FF;}
	.st1{font-family:'Roboto-Regular';}
	.st2{font-size:19.2px;}
	.st3{letter-spacing:3;}
	.st4{fill:url(#SVGID_1_);}
	.st5{fill:url(#SVGID_2_);}
	.st6{fill:url(#SVGID_3_);}
	.st7{fill:url(#SVGID_4_);}
	.st8{fill:url(#SVGID_5_);}
	.st9{fill:url(#SVGID_6_);}
	.st10{fill:url(#SVGID_7_);}
	.st11{fill:url(#SVGID_8_);}
</style>
<switch>
	<g i:extraneous="self">
		<g>
			<text transform="matrix(1 0 0 1 39.3138 38.5051)" class="st0 st1 st2 st3">REAR</text>
			<g>
				<linearGradient id="SVGID_1_" gradientUnits="userSpaceOnUse" x1="10.4889" y1="155.8405" x2="117.1391" y2="1.9402">
					<stop  offset="0" style="stop-color:#00ADDC"/>
					<stop  offset="1" style="stop-color:#6BFBFF"/>
				</linearGradient>
				<path class="st4" d="M70,138.5c-0.1,0-0.3,0-0.4,0c-37.8-0.2-68.3-31.1-68.1-68.9c0.1-18.3,7.3-35.5,20.3-48.3
					C34.7,8.5,51.8,1.5,70,1.5c0.1,0,0.3,0,0.4,0c18.3,0.1,35.5,7.3,48.3,20.3c12.9,13,19.9,30.2,19.8,48.5
					C138.3,108,107.6,138.5,70,138.5z M70,3.9c-17.5,0-34,6.8-46.5,19.1C11,35.4,4,52,3.9,69.6c-0.2,36.4,29.3,66.3,65.7,66.5
					c0.1,0,0.2,0,0.4,0c36.3,0,65.9-29.4,66.1-65.7l0,0c0.1-17.7-6.7-34.3-19.1-46.8C104.6,11,88,4,70.4,3.9
					C70.2,3.9,70.1,3.9,70,3.9z"/>
			</g>
			<g>
				<linearGradient id="SVGID_2_" gradientUnits="userSpaceOnUse" x1="11.5789" y1="156.6799" x2="118.2996" y2="2.6779">
					<stop  offset="0" style="stop-color:#00ADDC"/>
					<stop  offset="1" style="stop-color:#6BFBFF"/>
				</linearGradient>
				<polygon class="st5" points="30.5,97.5 30.5,47.4 109.5,47.3 109.5,97.4 60.7,97.4 60.7,95 107.1,95 107.1,49.7 32.9,49.8 
					32.9,95.1 51.9,95 51.9,97.4 				"/>
			</g>
			<g>
				<linearGradient id="SVGID_3_" gradientUnits="userSpaceOnUse" x1="9.0573" y1="154.9325" x2="115.778" y2="0.9304">
					<stop  offset="0" style="stop-color:#00ADDC"/>
					<stop  offset="1" style="stop-color:#6BFBFF"/>
				</linearGradient>
				<path class="st6" d="M57.1,111.6l-2.1-1.2c1.6-2.8,5.4-11.2,4.2-15.7c-0.8-2.8-1.8-4.4-3-6.1c-2.4-3.6-4.9-7.3-4.4-21.7l2.4,0.1
					c-0.6,13.6,1.6,16.8,3.9,20.2c1.2,1.8,2.5,3.6,3.3,6.9C63.3,100.5,57.4,111.2,57.1,111.6z"/>
			</g>
			<g>
				<linearGradient id="SVGID_4_" gradientUnits="userSpaceOnUse" x1="0.4632" y1="148.9769" x2="107.1839" y2="-5.0251">
					<stop  offset="0" style="stop-color:#00ADDC"/>
					<stop  offset="1" style="stop-color:#6BFBFF"/>
				</linearGradient>
				<polygon class="st7" points="50,75.1 47.9,74 53.1,64.4 58.4,74 56.3,75.1 53.1,69.4 				"/>
			</g>
			<g>
				<linearGradient id="SVGID_5_" gradientUnits="userSpaceOnUse" x1="19.6431" y1="162.2683" x2="126.3638" y2="8.2663">
					<stop  offset="0" style="stop-color:#00ADDC"/>
					<stop  offset="1" style="stop-color:#6BFBFF"/>
				</linearGradient>
				<path class="st8" d="M72.8,111.6l-2.1-1.2c1.6-2.8,5.4-11.2,4.2-15.7c-0.8-2.8-1.8-4.4-3-6.1c-2.4-3.6-4.9-7.3-4.4-21.7l2.4,0.1
					c-0.6,13.6,1.6,16.8,3.9,20.2c1.2,1.8,2.5,3.6,3.3,6.9C78.9,100.5,73,111.2,72.8,111.6z"/>
			</g>
			<g>
				<linearGradient id="SVGID_6_" gradientUnits="userSpaceOnUse" x1="11.0493" y1="156.3129" x2="117.77" y2="2.3109">
					<stop  offset="0" style="stop-color:#00ADDC"/>
					<stop  offset="1" style="stop-color:#6BFBFF"/>
				</linearGradient>
				<polygon class="st9" points="72,75.1 68.8,69.4 65.6,75.1 63.5,74 68.8,64.4 74.1,74 				"/>
			</g>
			<g>
				<linearGradient id="SVGID_7_" gradientUnits="userSpaceOnUse" x1="30.229" y1="169.6041" x2="136.9497" y2="15.6021">
					<stop  offset="0" style="stop-color:#00ADDC"/>
					<stop  offset="1" style="stop-color:#6BFBFF"/>
				</linearGradient>
				<path class="st10" d="M88.5,111.6l-2.1-1.2c1.6-2.8,5.4-11.2,4.3-15.7c-0.8-2.8-1.8-4.4-3-6.1c-2.4-3.6-4.9-7.3-4.4-21.7
					l2.4,0.1c-0.6,13.6,1.6,16.8,3.9,20.2c1.2,1.8,2.5,3.6,3.3,6.9C94.6,100.5,88.7,111.2,88.5,111.6z"/>
			</g>
			<g>
				<linearGradient id="SVGID_8_" gradientUnits="userSpaceOnUse" x1="21.6348" y1="163.6485" x2="128.3555" y2="9.6464">
					<stop  offset="0" style="stop-color:#00ADDC"/>
					<stop  offset="1" style="stop-color:#6BFBFF"/>
				</linearGradient>
				<polygon class="st11" points="81.3,75.1 79.2,74 84.5,64.4 89.7,74 87.6,75.1 84.5,69.4 				"/>
			</g>
		</g>
	</g>
</switch>
</svg>
